<svg xmlns="http://www.w3.org/2000/svg" fill="none" class="freyja_char-header-logo__rutubeDesktop__GOuY8" viewBox="0 0 125 25"><path fill="#fff" d="M13.902 6H0v15h3.87v-4.88h7.414L14.667 21H19l-3.73-4.902c1.158-.18 1.992-.608 2.502-1.282.51-.675.765-1.755.765-3.194v-1.124c0-.855-.093-1.53-.255-2.047a3.399 3.399 0 0 0-.834-1.372 3.799 3.799 0 0 0-1.437-.832C15.455 6.09 14.76 6 13.903 6Zm-.625 6.814H3.87V9.306h9.407c.533 0 .904.09 1.089.247.185.158.301.45.301.877v1.26c0 .45-.116.742-.301.9-.185.157-.556.224-1.09.224ZM24.758 16.57V6H21v10.48c0 .854.067 1.552.225 2.069.157.54.427.99.832 1.372.383.404.833.674 1.373.832.54.18 1.215.247 2.07.247h9c.833 0 1.508-.067 2.047-.247.54-.158.99-.428 1.396-.832.382-.383.652-.832.81-1.372.157-.517.247-1.215.247-2.07V6h-3.758v10.57c0 .45-.112.742-.292.9-.18.157-.54.224-1.058.224h-7.785c-.54 0-.9-.067-1.08-.225-.18-.157-.27-.45-.27-.9ZM51.849 21V9.306H59V6H41v3.306h7.151V21h3.698ZM64.757 16.57V6H61v10.48c0 .854.068 1.552.225 2.069.157.54.428.99.832 1.372.383.404.833.674 1.373.832.54.18 1.215.247 2.07.247h9c.832 0 1.507-.067 2.047-.247.54-.158.99-.428 1.395-.832.383-.383.653-.832.81-1.372.158-.517.248-1.215.248-2.07V6h-3.757v10.57c0 .45-.113.742-.293.9-.18.157-.54.224-1.058.224h-7.784c-.54 0-.9-.067-1.08-.225-.18-.157-.27-.45-.27-.9ZM98.257 10.363v-.293c0-1.394-.36-2.428-1.082-3.08-.72-.653-1.87-.99-3.401-.99H81v15h13.517c1.532 0 2.68-.315 3.402-.967.72-.652 1.081-1.687 1.081-3.08v-.316c0-1.394-.36-2.384-1.081-2.968-.135-.09-.27-.158-.406-.225a5.798 5.798 0 0 0-.586-.248c.496-.27.834-.63 1.036-1.034.18-.405.294-1.012.294-1.8Zm-13.495 1.642v-2.7h8.403c.54 0 .901.09 1.082.248.18.158.27.45.27.877v.45c0 .45-.09.742-.27.9-.18.157-.541.225-1.082.225h-8.403Zm0 5.69v-2.7h9.169c.518 0 .879.09 1.06.248.179.157.292.45.292.877v.45c0 .45-.113.742-.293.9-.18.157-.54.224-1.06.224h-9.168ZM104.837 9.306h12.543V6H101v15h17v-3.306h-13.163v-2.541h12.244l.299-3.306h-12.543V9.306Z"/><path fill="#F41240" d="M121.682 5.252a2.623 2.623 0 0 0 2.619-2.626A2.623 2.623 0 0 0 121.682 0a2.623 2.623 0 0 0-2.62 2.626 2.623 2.623 0 0 0 2.62 2.626Z"/></svg>